<?xml version="1.0" encoding="utf-8"?>
<!-- Generator: Adobe Illustrator 19.0.0, SVG Export Plug-In . SVG Version: 6.00 Build 0)  -->
<svg version="1.2" baseProfile="tiny" id="Layer_1" xmlns="http://www.w3.org/2000/svg" xmlns:xlink="http://www.w3.org/1999/xlink"
	 x="0px" y="0px" viewBox="494 -729 1600 2250" xml:space="preserve">
<g>
	<path fill="#2E2E2E" d="M1477.7,1000C1478,1000.6,1475.2,995.1,1477.7,1000L1477.7,1000z"/>
	<path fill="#2E2E2E" d="M1419.3,980.3c-21.1-3.2-42.7-6.2-64.1-6c-22.2,0.2-44.1,3.1-66.3,2.6c-18.8-0.5-37.5-3.2-56.3-2.4
		c-19.6,0.8-39.2,3.4-58.6,6.5c-14,2.3-45.6,3.4-53.4,17.9c-10.5,19.7,35.8,9.3,42.2,8.2c26.4-4.1,53.6-3.9,80.2-4.8
		c48.4-1.6,96.5-0.7,144.9,1.2c7.5,0.3,14.4-1,11.3,7.8c-2.8,8.1-14.8,15-21.3,19.5c-13.4,9.2-27.9,16.6-43.8,20.3
		c-15,3.5-30.6,3.8-46,3.4c-20.1-0.5-42.7-5.2-62.6-2.7c-9.4,1.2-11,6.2-5.1,13.5c9,11.2,25.7,17.7,39,21.7
		c44.5,13.7,99.5,4.9,142-12.4c18.3-7.5,35.7-17.7,50-31.5c7-6.7,31.5-32.9,26.2-43.2C1469.4,983.5,1434.8,982.7,1419.3,980.3z"/>
	<path fill="#2E2E2E" d="M1243.6,750.7c10.5,14.3,18.5,33.2,35.5,41.1c16.7,7.7,35.4,2.6,47.7-10.4c5.9-6.2,10.3-13.6,15-20.7
		c3.2-4.8,4.8-8.1,9.7-9.5c3.8-1.2,9.6,0.1,13.7-0.5c10.8-1.5,38-7.9,30.4-24c-20.1-42.7-64.8,42.7-76.6,53.2
		c-37.3,33.2-63-26.3-82-48.4c-5.7-6.6-13.2-15.4-22.7-15.9c-8.1-0.4-19.6,7.7-19.2,16.5C1196,749.2,1231.5,752.9,1243.6,750.7z"/>
	<path fill="#2E2E2E" d="M1243.6,750.7C1229.9,753.2,1246.5,754.6,1243.6,750.7L1243.6,750.7z"/>
	<path fill="#2E2E2E" d="M1226.3,778c4.9-1.9,3.3-7.3-0.2-9.3c-4.9-2.8-17.7-1.3-23.6-2.6c-20.2-4.5-39.7-15.3-47.6-35.5
		c-8.4-21.3-2.7-46.2,4-67.2c2.5-7.7,25.1-52.4,18.9-55.9c-8.7-5-22.4,37.9-24.8,44.5c-7.9,21.8-14.5,46.7-10.2,70
		C1150,761.3,1189.9,778,1226.3,778z"/>
	<path fill="#2E2E2E" d="M1441.8,696.3c5.1,46.5-30.8,72.9-74.6,72.5c1.3,0,11.9,0.1,0,0c-6.9-0.1-1.7,8.1,1.3,9.3
		c4.9,1.8,15.2-1.1,20.2-2c19.6-3.6,39.3-12.2,51.3-28.8c26.7-36.9,4.1-88.9-12.1-125.1c-1.9-4.2-4.9-18.8-12.3-14.6
		c-6.3,3.6,4.4,19.8,6.6,24.7C1431.2,652.6,1439.4,673.9,1441.8,696.3z"/>
	<path fill="#2E2E2E" d="M1367.2,768.7C1367.2,768.7,1367.2,768.7,1367.2,768.7C1367,768.7,1367,768.7,1367.2,768.7z"/>
	<path fill="#2E2E2E" d="M1931.3,271.8c-6.3-8.5-15.4-16.1-26-18c-5.5-1-10.5,0.5-15.5,1.6c1-0.7,1.5-1.7,1.4-2.9
		c-0.4-3.3-13.2-36-16.1-41.6c10.5,3.5,9.6-62.6,10.7-71.7c3.1-24.3,4.6-39,7.1-62.1c7.5,15,16.6,3.1,11.5-6.3c-0.1-0.2-0.1-0.1,0,0
		c-4.4-8.2-4.8-14.7-4.9-23.2c-0.1-3.9,9.4-53.5-6.9-22.3c-2-58.3-6.6-129.7-27.6-184.7c-10.5-27.5-3.1-35-16.8-55.5
		c-1.2-1.7,0.8-9.4-3.5-14.7c-1.2-1.4-5.8-1.1-6.5-2.1c-3-4.8-11.4-10.6-15.2-14.9c-16.9-18.9-18-42.4-29.2-64.9
		c-14.2-28.6-39.2-66.6-60.8-85.8c-8.1-7.2-20.6-12.2-28.3-21.9c-3.4-4.3-2.5-16.4-5.3-21.8c-5.1-9.9-14.3,1.6-17.7-12.1
		c27.6-8.7-33.5-42.1-28.5-60.8c6.6-24.8,43.5-35.3,0.6-34.6c-4.7,4.1-9.2,8.5-13.4,13.1c-4.2-5-8.8-6.3-13.9-4
		c-8,0.1-14.2-3.8-21.8,1.8c8.9-9.6,8-35-5.3-37.6c4.8,1.4-39.9,10.2-35.8,9c16.2-19.7,11-14.2,3.6-32.3
		c0.2,0.4-11.9-18.4-13.5-19.3c1.1,0.6-44.7,1.2-44.9,1.3c-9.7-29.6-42.9-19.2-63.2-0.9c-2.8-17.7-23.2-15.7-33.4-9
		c23.5-45.1-22.1-9.3-25.9-8.7c1.7-16-15.7-6.7-19.5-12.7c-7.1-11.2,1.2-23.7-2.7-33.7c-12.6-32.1-21.8-10.2-38.5,8.8
		c-13.2,15-16.8,18-32.4,15c-15.2-2.9,2.6-26.1-22.4-7.3c-9,6.7-19.4,30.3-28.7,40.1c-2.8-11.5-26.1-6.8-34.7-5.8
		c-2.8-2.3-6-4.1-9.6-5.2c-8,2.1-14.1,6.8-18,14.1c-6.9,0.6-14.2-12.6-24.7-10.2c-8.4,1.9-26.8,11-35.4,16.4
		c-8.8,5.5-19.7,16.2-28.4,24.5c-6.1,5.8-10.6,16.5-16.5,21c-5-6.1-10.7-7.2-16.9-3.3c-4.8,3.5-7.5,8.1-8.1,14.1
		c-3.2,2.6-4.6,10-8.7,13.4c-19.9,16.6-40.5,20.3-61.3,35c14.8-39.9-38.9,20.2-41.1,23.6c7.4-43.5-10-37.1-21.6-4.9
		c-8.1,22.6-12.3,46.1-28.1,67c-23.4-29.6-16.1,12.1-19.6,18.9c-4.1,8.3-14.7,14.4-21.3,22.3c-7.4,8.9-10.2,19-19.5,28
		c-24.3,23.6,17.1-21.3-10.5-0.6c-12.1,9.1,0.9-1.7-13.6,13.1c-6.2,6.4-12.9,23.9-17.7,33.1c-7.8,15.2-12.8,34.5-17.9,46.6
		c-2.1,4.9-8.3,14.3-11.7,19.4c-11.1,17-12.8,10.8-24.8,23c-9,9.2-16.2,10.3-19.6,25.4c-2.5,11.2,10.6,10.9,11.7,17.1
		c1.4,8.4-9.6,4.1-9,11.6c1,12.9,11.7,10.5,7.8,23.8c-2.6,9-9.9,5-10.6,6.9c0.1-0.3-10.6,7.7-12.5,11.8c-0.5,1.1,1.6,13.8,1.6,14
		c-4.5,19.2-4.4,40.4-6.4,61c-1.1,11.7,0.2,27.2-2,38c-1.3,6.6-10.9,36-10.2,38.5c-1.5-1.5-5.9-9.8-7.8-9.8
		c-14.1,0,14.2,77.2,14.8,79.5c5.8,25.9,1.6,48.2,4.9,75.4c1.7,14.3,6.9,30.6,9,43.4c1.5,9.2-2,34.6-0.2,40c0,0.1,0.1,0.1,0.1,0.2
		c-3.8,1.1-7.1-1.7-12.8-2c-13.2-0.8-24.4,6.7-32.5,16.6c-19.2,23.6-7.4,55-9.2,82.7c-1.9,29.2-3.7,58.3,3.1,87.1
		c0.9,3.9,5.3,11.8,4.7,15.6c-0.6,3.8-4.3,8.1-5.1,12.3c-2.8,14.3,6.6,24.3,14,35.3c14.5,21.8,11,53.9,13.2,79.2
		c2.3,26.2,6,51,11.7,76.6c4.6,20.6,11.4,40.9,13.7,61.9c0.9,8.5,1.8,14.9,7.8,21.6c0.9,1,2.1,1.8,3.3,2.7c0.2,0.7,0.4,1.4,0.5,2.2
		c0.1,0.5,0.4,1.1,0.7,1.7l-5.6,12.2c0,0,1.9-2.1,5.7-12.1c3.4,6,14.6,13.5,13.7,10.3c6.4,24.2-5.7,43.6-0.4,68.2
		c5.7,26.2,17.4,32.1,16.1,61.8c-0.2,5.4-7.2,55.6,16.8,33.5c9.4,23.1,2.3,52.7,12.1,79.6c5.3,14.5,11.2,27.2,17.7,44.3
		c6.1,16,14.5,42.3,18.1,54.4c7.2,24.5,27.2,62.4,30.2,87.2c-11.8-7.1,9.5,21.6,8.9,19.9c11.4,29.5,20.8,58.9,36,87.2
		c11.9,22.3,19.8,39.7,40.3,52.6c1.7,1,11.1-1.2,15.2,0c13.6,4,25.8,8.9,30.4,20c-1.1-1.1-4.8-4.2-6.3-1.8
		c-5.2,8.3,17.5,20.4,22.1,7.2c2.3,10.1,26.5,20.5,34.1,27.3c10.7,9.6,53,59.9,69.9,49c4.8,25.3,24-3.9,20.5-9.1
		c0.6,0,12.6,17.5,18.7,22.4c2.2,1.8,12.5,1.8,15.7,3.3c5.6,2.6,80,42,69,2.6c1.9,1.3,3.6,2.8,5.2,4.5c-9.4,7.7,4.3,28.2,23.5,6.6
		c8.7,15.2,21.8-0.2,17.3-12c28.3,6.9,16.7-13.3,31.1-15c23.3-2.7,9.1,10.4,16,13.1c22.1,8.7,42.6-9.5,65.8-3.8
		c25.7,6.4,21.2,19.8,49.9,6.1c-4.7,11.5,6.9,10.9,9,13.5c2.3-0.2,29.5-29.8,34.6-33c-0.6,0.8-15.5,19.1-11.6,22.5
		c-3-2.6,90.5-64.5,97.6-70.7c21.5-18.7,31.3-17,48.3-31.8c15.3,17.8,16.9-13.8,19.7-21c17.5,19.2,128.2-154.8,139.3-173.4
		c-1.8,3,2.1-30.8,3.2-34.5c9.4-31.3,12.5-62.1,25.4-91.1c4.9,5.7,25.2-41.4,27-46.9c13.7-40.8-1.6-66.3,8.9-107.1
		c-0.4,36.9,14,21.5,15.5-2.5c0.6-10.2-2.5-23-1.3-34.5c3-28.7,9.2-58.7,14.7-87.5c10.2,2.6,22.4-5.4,26.8-13.9
		c5.8-11.1,7-25.5,6.8-37.7c-0.1-6.8-2.5-15.5-1.4-21.8c2.6-14.8,8.6-30.5,11.9-45.7c4.4-20,7.5-39.4,9.3-59.8
		c2.1-23,1.8-47.1,5.6-69.8c3.6-21.4,29.1-35.1,21.3-58.6c-3.2-9.8-4.5-6.1-1.4-15.9c3.3-10.4,4.9-21.5,6-32.4
		c2.5-25.2-1-49.6-1.3-74.8C1938.2,316.5,1947,292.9,1931.3,271.8z M759.5,213.6c0-5.3,38.5-115.1,6.9-110.5
		c12.6-26.6,20.4-52.6,27.6-81.2c5.5-21.7,18.4-42.7,20.4-59.1c6-49.8-11-94.7,30.5-145c5,11.2,12.1-4.2,15-6.2
		c16-11.1,11.8-14.3,33.9-17.9c48.3-7.7,102.8-4.5,151.6-2c69.8,3.6,137.8,16.5,206.2,29.6c68.6,13.2,128.6-9,196.6-18.3
		c63.1-8.6,128.6-10,192.3-11.2c26.4-0.5,64.4-1.1,80.7,21.2c10.2,14,10.6,40.5,15.7,58.1c7,24.3,7.1,53.8,15.4,76.6
		c1.1,3.1,5.8,25.1,12.6,10.7c1.1,3.8,0.3,66.1,10.7,52.5c12.1,31,36.4,75.5,40.6,108.5c1.4,10.5-5.9,21.7-3.1,31.3
		c1.4,4.6,17.8,15.2,20.8,24.8c-8.8-2.9,2.2,61.4,11.2,75.6l-1.5-0.2c-34.3-4.5-68.7-7.4-103.2-9.4c11.6-0.9,21-2.7,23.1-5.8
		c16.2-24.1-61.7-80.3-78.7-86.8c-20.4-7.8-32.6-6.2-52.1-7.6c-12.8-0.9-24.9-10.2-38.3-10.4c-13.3-0.2-26.7,8.1-41,8.4
		c-14.2,0.4-39.6-6.6-60.6-4.9c-10.6,0.8-23.7,9.5-34.6,13c-28.4,9.1-27.5,22.7-45.4,44.4c-0.1,0.1-0.1,0.1,0,0
		c-28.3,34.6,74.2,35.4,88.9,27.5c-4.6,4.1,37,13.6,37.3-0.8c1.5-0.2,3-0.5,4.6-0.8c-5.6,12.5,23.5-2.4,26-2.4
		c-3.6,1.3,60.9,4,71.7,5.3c17.8,2.1,33.9,15.6,43.1,18.9c0.1,0,0.2,0.1,0.3,0.1c-7,0.9-16.5-0.4-23.1-1
		c-19.1-0.5-29.8-0.7-32.6-0.8c-0.5,0-0.8,0-0.8,0c-11.4-0.1-22.7-0.1-34.1-0.1c-38.9,0.2-77.8,1.4-116.6,4.4
		c-31.9,2.5-64.9,5.2-95.8,14c-15.4,4.4-24.5,8.2-28.3,24.6c-4.2,18-3.9,36.6-1.3,54.8c-37.1-5.1-74.9-5.1-112.1,0
		c2.8-19.9,8.1-64.6-15-74.4c-18.1-9.7-42.7-11.5-62.7-14.2c-24-3.2-48.2-5.1-72.4-6.5c-48.8-2.8-97.7-3.3-146.5-2.4
		c15.5-2.5,28.9-5,37-6c54.3-6.9,110.9-8,161.7-8.4c37.9-0.4,52-21.2,27.2-52.2c-6-7.4-9.3-13.7-18.4-19c-5.3-3.1-13,5.3-13,5.3
		c-7.3-3.5-5.9-14.5-13.5-16c-5.4-1-13.3,4.4-15,3.6c0.1,0.1,0.2,0.1,0,0c-25.1-11.1-44.5-1-67.4-2.5c-25-1.7-46-6.8-70.3-5.3
		c-28.6,1.8-161,40.7-141.9,93.2c2,5.5,7.2,9.1,14.6,11.4c-13.8,0.9-27.6,1.9-41.3,3.1c-9.4,0.8-18.8,1.7-28.1,2.7
		c-5,0.6-13.1,2.6-17.7,1.3l-0.1,0C770.9,236.4,759.4,231.2,759.5,213.6z M1814.3,477.3c-6.9,20.1-26.6,19.6-45.5,21.2
		c-23.8,2-47.9,2.4-71.8,2.6c-50.5,0.5-101-1.2-151.5-3.2c-23.9-1-47.8-2.1-71.6-3.6c-19.4-1.2-42.5,0.3-61.2-5
		c-30.4-8.7-34.1-59.4-39.8-84.9c-4.6-20.7-6.4-42.3-7.9-63.4c-1.2-16.9-6.2-48.9,5.4-63.4c9.5-11.9,34.5-12.4,48.3-14.1
		c22.7-2.9,45.6-4.2,68.5-5.1c45.2-1.9,90.5-1.9,135.8-1.2c45.2,0.7,91.8-0.3,136.3,8.5c19.6,3.9,41.1,9.6,56.6,23
		c15.9,13.7,17.7,34.5,17.9,54.3C1834,386.3,1828.3,436.4,1814.3,477.3z M759.9,324.5C759.9,324.5,759.9,324.4,759.9,324.5
		c2.6-10.8,2.8-20,10.1-29c7-8.8,17.1-14.8,27.3-19.2c21.7-9.5,46-13.1,69.5-15.3c52-4.8,105-4.3,157.1-4.2
		c43.4,0.1,86.9,0.8,130.1,4.6c17.9,1.6,36.8,3.1,53.9,8.6c17.2,5.5,19.2,17.7,20.1,34.8c2.2,38.6-3.6,78.4-12.4,116
		c-3.5,15-6.3,30.5-12.6,44.6c-8.9,20-21.7,24.4-42.5,26.1c-94.3,7.8-190.1,11.4-284.8,9.3c-23.3-0.5-47-0.8-70-4.4
		c-9.3-1.4-19.7-2.2-24.8-11c-3.9-6.8-5.8-16.5-7.8-23.9c-5.9-22.7-8.5-46-11-69.2c-2.2-20.7-4.9-41.7-3-62.5
		C758.8,333.8,758.3,336.5,759.9,324.5z M663.4,446.1c-7.5-21.7-8.4-46.3-7.2-69.1c1.3-24.4,0.3-47.8-0.3-72.1c0-0.1,0-0.2,0-0.3
		c0-0.2,0-0.3,0-0.5c0-0.2,0-0.4,0-0.6c0-0.2,0-0.4,0-0.5c3.4,2.6,3,18.5,3.4,23.2c1.4,14.2,0.1,28.3-0.7,42.4
		c-0.8,14-0.8,27.7,0,41.7c0.5,8.1,1.2,16.2,2.6,24.3C661.5,436,664.7,444.8,663.4,446.1z M715.4,408.5c-3.5,25.6-16.3,47.6-18.6,73
		c-3.3,36.6,10,76.6,13.9,112.4c3.8,34.7-1,69.9-0.4,104.3c-0.9-4.4-2.1-8.1-3.7-9.3h0c0-0.2-0.1-0.4-0.1-0.6c0-0.1,0-0.2,0-0.2
		c-0.1-0.3-0.1-0.6-0.1-0.8c0-0.1,0-0.2,0-0.3c-9.1-50-16.2-100.3-18.3-151.3c-0.9-21.4,0.9-41.8,5.4-62.8c1-4.9,5.7-14.2-1-16.5
		c-8.8-3.1-9.6,11.5-10.5,16.3c-2.6-9.9-4-14.1-0.2-23.6c5.4-13.7,8.9-28.2,11-42.7c3.8-26.3,4-56.1-7.5-80.7
		c-7.6-16.4-31-34.8-16.2-53.9c4.2-5.4,19.1-14.5,26.4-8.9c4.9,3.8,0.9,17.7,2.1,25.2c2.1,12.8,8.6,15.6,19.4,19.9
		c13.8,5.4,14.9,15.6,12.9,26.7c-0.5,0.1-1,0.3-1.5,0.5C716.8,339.2,716.9,397.6,715.4,408.5z M1819.5,571.4
		c-4.5,7.6-0.7,14.9-4.3,21.9c-5.5,10.9-10.5,18.2-15.7,34.3c-14.2,43.4-41.8,81.1-48.2,125.7c-0.8,5.5-1.2,20.2-3.2,25
		c-5.2,12.7-5.2,8.5-15.5,20.1c-5.5,6.2-19.9,17-21.5,18.6c-9.9,9.9-25.9-2.4-18.7,27.8c-31.3-23.1-12.7,33.6-12.9,41.1
		c-11.5-18.1-20.1,37.2-20.9,40.5c-1.8,8.4-7.4,19.8-7.1,27.8c-36.5-34.5-71.2,23-73.2,58.5c-2.1,36,29.8,59.6,17.4,98.9
		c-3.5,11-16.6,41.8-23.6,50.8c-9.1-14.8-48.6-46.6-56.2-9.8c-34.9-22.4-35.9-2.3-42,21.7c-3.5,13.8-8.9,20.3-5,37.9
		c2.9,13.3,14.7,22,10.2,36.2c-0.6-5.2-10.8-23.3-16.7-18.3c3.7-48.4-59.5,26.6-62.6,30.8c-7.8-17-44.8-11.2-55-11.1
		c-11.2,0.1-23.4,0-34.9,0.2c-3.8,0.1-9.8-7.1-14.4-6.4c-14.5,2.4-16.4,15.4-26.6,17.9c-17.7,4.4-27.3-17.3-47.7-18
		c-20.6-0.7-18.2,13.8-29.8,20.5c-3.7-11.9-27.1-41.2-42.2-43c-22-2.7-6,3.9-10.6,16.3c-7,18.6-18.1-17.2-17.9-16.4
		c-4.1-16.2-2.4-23.2,5-21c0.2,0.1,0.4,0.2,0.7,0.2c-0.2-5.8-1.9-16.4-3.1-25.5c-7.2-52.8-10.6-29.8-50.7-27.1
		c-4.9,0.3-10.7-16.3-21.6-12.1c-13.7,5.2-18.8,12.8-28.4,23.3c-0.2-0.3-0.4-0.5-0.7-0.6c11.4-25.3-10.3-19.3-16.8-32.2
		c-5.3-10.4-2.8-28.4-1.3-46.8c2.2-27.3,12.1-55.5,7.3-82c-2.9-15.6-9.9-34.3-19.2-45.6c-20.9-25.1-30-9.9-55.1,2.8
		c0.7-9.4,0.6-14.8-1.9-23c-2.8-9.6-2.9-14.8-5.6-23c-5-15.6,4-21.5-15-26.6c7.4-17.4,10.8-22.8,5-40.6c0.5,1.6-14-9.1-13.4-8.5
		c-3.9-4.3,1.9-10.3-4.7-15.4c-10.5-8.2-18.4-4-27.6-9.5c-19.3-11.5-58.9-82-61.9-81.2c3.5-6.1-9.9-37.9-14.2-48.9
		c-8.4-21-19.9-27.7-28.1-46.7c-4.8-11-10.9-31.3-14.1-42.3c-2.5-8.8-0.2-57.3-7.6-42.6c0.2-15.2-12.2-32.4-12.6-53.1
		c-0.6-34.9-1.6-70.5,0.7-105.3c0.4-7,9.3-36.7,4.5-48.6l0.8,0.2c2.6-2.1,9.3,0.4,13.1-3c-1,32.4,3.1,65,8.4,96.9
		c3.1,19,5.5,57.1,25.9,65.3c23.2,9.2,53.9,7,78.3,7.7c31.4,0.9,62.9,0.7,94.3,0.1c52.6-1.1,105.3-3,157.8-6.2
		c12.4-0.8,24.9-1.8,37.3-2.6c10.7-0.7,22.5,0,32.2-5.2c21.2-11.2,26.9-44.5,31.8-65.5c2.8-11.7,6.8-22.8,9-33.7
		c2.6-12.5,3-27.9,7.9-39.7c2.3-5.5,1.9-5,8.8-5.9c2.6-0.3,5.3-0.7,7.9-0.9c7-0.8,14.1-1.3,21.2-1.7c14.1-0.8,28.3-0.8,42.4,0
		c8.9,0.5,17.7,1.2,26.5,2.3c8.1,1,10.2-0.1,11.9,8.6c2.7,13.1,4.4,26.9,7.8,39.8c5.9,22.7,11.5,49.6,21.1,72.1
		c10.6,24.6,26.8,28.1,51.6,29.7c25.2,1.6,50.3,3.4,75.5,4.6c55,2.6,110.2,4.6,165.3,4.7c27.1,0,54.2-0.3,81.2-1.9
		c15.9-1,46.4,0.3,56.5-14.8c11.9-17.9,14-47.9,17-68.6c4.1-28.1,7.4-56.5,6.6-85c3.7,3.3,7.5,2,9.8,5.5l3.4,1.1
		c-1.2,1-2.5,2.6-3.9,4.8c-6.8,11.1,5.8,84.8,5.8,100c0,22.7,7.6,67.6-0.7,90.2C1848.9,548.4,1826.1,560.2,1819.5,571.4z
		 M1874.1,726.2c-0.4,2.1-2.1,2-2.7,4.2c-1.1,4.1-0.3,5.9-2.7,9.1c-3.3,4.3,0.8,3.3-6.1,2.3c-0.1,0-0.2,0-0.3,0
		c-1.6,3.1-3,6.3-4.2,9.3c2.5-23-1.3-42.4,0-67.6c0.1-1.6,0.2-3.2,0.3-4.7c0.3-0.1,0.6-0.3,0.9-0.4c1.8-0.9,6.2-2,8.4-1.5
		c1,0.2,1.8-0.3,2.6,0.2c8,5.5,8.1,26.6,9,34.9C1871.5,710.2,1874.8,722.7,1874.1,726.2z M1899.1,336.3c-7.8,24.7-6.7,52.4-2.1,77.6
		c2.5,13.7,7.1,26,11.4,39.1c2.4,7.2,0.2,12.2-1.8,19.7c-0.9-5-1.7-19.4-10.5-16.3c-6.7,2.4-2.1,11.7-1,16.5c4.3,20,6.3,39.5,5.5,60
		c-1.9,48.5-4.7,99.9-19.2,146.5c-1.6-3.7-4.6-12.1-9.3-12.1c-3.8,0-8.7,0.5-12.9,1.5c8.1-81.7,45.8-150.1,16.6-237.4
		c-1.1-3.4-0.5-1.6,0-0.1c-3.3-10.1-6.5-70.2-16.1-86l1,0.3c-0.2-1.2-0.3-2.3-0.3-3.4c0-1.7-1.2-2.2-1.1-4.6
		c0.1-1.7,2.8-2.2,2.9-5.1c0.5-10.5-2.2-17.1,9.3-23.1c11.3-5.8,20.1-5.2,23.1-19.9c1.1-5.7,0.9-11.7,0.5-17.4
		c-0.4-6.1-3-8.6,3.3-10.1c9.5-2.2,20.8,7.3,24.1,15.3C1930.4,296.9,1904.8,318.3,1899.1,336.3z M1924.9,446.1
		c-1.8-1.9,2.9-16.3,3.3-19.3c1.1-8.8,4.7-23.1,2.2-31.6c0-0.1,0-0.1,0-0.2c1-18.2-2.2-36.4-2.2-54.7c0-5-0.6-33.6,4.2-37.3
		c-0.6,25-1.7,48.9-0.3,74C1933.4,399.8,1932.4,424.4,1924.9,446.1z"/>
	<path fill="#2E2E2E" d="M1518.9,933.9C1519.3,934.9,1519.8,932.3,1518.9,933.9L1518.9,933.9z"/>
	<path fill="#2E2E2E" d="M1502.4,878.8c-9.5-15.1-43.2-26.7-60.1-33.4c-18.3-7.2-36.6-18.2-55-24.8c-5.5-2-27.7-3.9-35-4.8
		c-9-1.1-15.2-3-24.6-1.2c-6.7,1.3-14.9,5.3-20.3,6.4c-17.3,3.5-5,3.9-19.3,1.6c-16.4-2.6-22.8-8.5-38.6-8.8
		c-5.2-0.1-13.7,7.6-18.3,9.2c-10.6,3.6-24.4,2.3-36.6,6.7c-12.2,4.5-23.9,10.2-35,14.5c-22.8,8.9-39.6,11.3-55.8,27.5
		c-11.7,11.6-38.2,46.3-40.2,68.5c-1.2,13.6,29.6,47.7,34.2,31.6c1.9,1.5,1.9,4.4,3.6,5.8c-1.1,0.5-2.1,0.3-3.1-0.4
		c16.7,20.3,29.6,5.7,49.2-4.7c5.3-2.8,33.8-18.4,39.8-25.4c1.9,5.2,18.8,12.5,32.9-6.9c12.4,11.4,42.4-1.9,57.4-1.3
		c20.1,0.8,33.9,8.4,48.9-8.8c-0.8-1.8,70.9,8.4,71.7,7c4.3,18.9,43.6,24.1,60.6,33.5c6.6,3.7,28.8,25.1,37,22.2
		c9.1-3.2,26.5-50.7,22.9-58.8C1523.7,925.9,1508.7,888.9,1502.4,878.8z"/>
	<path fill="#2E2E2E" d="M1362,1139c-10.5-19.7-7.7-27.6-33-32.4c-9.4-1.8-25.2,3.7-37.7,3.7c-30.9,0.1-70.3-21.1-70.5,31
		c0,3.3,2.3,20.9,3,21.7c11.4,12.7,17.1,3.1,23.3,7.3c9.6,6.5,15.6,18.4,31,22.6c20.5,5.5,68.4-5.8,67.3-28.7
		C1354.7,1173.7,1363.7,1142.3,1362,1139C1362,1139,1362,1139,1362,1139z"/>
	<path fill="#2E2E2E" d="M1362,1139C1362,1139.1,1362,1139.1,1362,1139C1362.8,1140.5,1362.2,1139.3,1362,1139z"/>
	<path fill="#2E2E2E" d="M1904.8,71.6c0.1,0.2,0.2,0.4,0.3,0.5C1905,72.1,1904.9,71.9,1904.8,71.6z"/>
	<path fill="#2E2E2E" d="M1904.8,71.6c-0.2-0.3-0.3-0.6-0.4-0.8c0,0,0,0,0,0C1904.5,71.2,1904.7,71.4,1904.8,71.6z"/>
	<path fill="#2E2E2E" d="M1875.8,431.3C1875.8,431.4,1875.8,431.4,1875.8,431.3C1876.6,433.8,1876.2,432.7,1875.8,431.3z"/>
	<path fill="#2E2E2E" d="M1109.4,145.1C1109.4,145.1,1109.4,145.1,1109.4,145.1C1109.1,144.9,1108,144.5,1109.4,145.1z"/>
</g>
</svg>
